<svg xmlns="http://www.w3.org/2000/svg" width="38" height="38" viewBox="0 0 38 38">
  <g id="Grupo_1419" data-name="Grupo 1419" transform="translate(-1479.703 -439.178)">
    <path id="Caminho_691" data-name="Caminho 691" d="M1505.441,473.923l7.685-7.685-6.368-6.361-2.558,2.558-1.321-1.32,2.562-2.562-2.562-2.562,1.321-1.32,2.565,2.565,3.8-3.8-3.806-3.806-2.562,2.562-1.318-1.318,3.882-3.883,5.927,5.927v7.766l-3.363-3.363-1.241,1.241,6.36,6.363,0-12.733-7.684-7.684-6.361,6.368,2.558,2.558-1.321,1.32-2.561-2.561-2.562,2.561-1.32-1.32,2.565-2.565-3.8-3.8-3.805,3.806,2.562,2.562-1.318,1.318-3.883-3.882,5.927-5.927h7.766l-3.364,3.363,1.241,1.241,6.364-6.36-12.733,0-7.684,7.684,6.367,6.361,2.558-2.558,1.321,1.32-2.561,2.562,2.561,2.562-1.321,1.32-2.565-2.565-3.8,3.8,3.806,3.806,2.561-2.562,1.319,1.318-3.883,3.883-5.927-5.927v-7.766l3.364,3.364,1.241-1.241-6.361-6.364,0,12.733,7.685,7.684,6.361-6.368-2.558-2.558,1.32-1.32,2.562,2.561,2.561-2.561,1.321,1.32-2.565,2.566,3.8,3.8,3.806-3.806-2.562-2.562,1.318-1.318,3.883,3.883-5.927,5.926h-7.766l3.363-3.363-1.241-1.241-6.362,6.359h12.732Zm1.321-21.815,1.324,1.324-1.321,1.321-1.324-1.324Zm-14.13-1.241,1.324-1.324,1.321,1.321-1.325,1.324ZM1491.392,465l-1.324-1.324,1.321-1.321,1.325,1.324Zm7.685-10.327,1.321,1.32-1.321,1.321-1.321-1.321Zm-2.562,5.2-1.32-1.321,1.32-1.321,1.321,1.321Zm2.562,2.561-1.321-1.32,1.321-1.321,1.321,1.321Zm1.241-3.882,1.32-1.321,1.321,1.321-1.321,1.321Zm5.2,7.685-1.324,1.324-1.321-1.32,1.324-1.325Z" transform="translate(-0.374 -0.374)" fill="#d6ab59"/>
    <path id="Caminho_692" data-name="Caminho 692" d="M1517.7,450.308l-11.13-11.13h-15.74l-11.129,11.13v15.74l11.129,11.129h15.74l11.13-11.129Zm-1.755,15.013-10.1,10.1H1491.56l-10.1-10.1V451.035l10.1-10.1h14.286l10.1,10.1Z" fill="#d6ab59"/>
  </g>
</svg>
